PathFileType        4      (X/Y/Z)      C:\Users\pc\Desktop\IMUTRC\Sujet_01\Sujet_01_velo_80.trc         
DataRate	CameraRate	NumFrames	NumMarkers	Units	OrigDataRate	OrigDataStartFrame	OrigNumFrames
60.0	60.0	4	64	mm	60.0	616	984
Frame#	Time	pHipOrigin			pRightASI			pLeftASI			pRightCSI			pLeftCSI			pRightIschialTub			pLeftIschialTub			pSacrum			pL5SpinalProcess			pL3SpinalProcess			pT12SpinalProcess			pIJ			pT4SpinalProcess			pT8SpinalProcess			pPX			pC7SpinalProcess			pTopOfHead			pRightAuricularis			pLeftAuricularis			pBackOfHead			pRightAcromion			pLeftAcromion			pRightArmLatEpicondyle			pRightArmMedEpicondyle			pLeftArmLatEpicondyle			pLeftArmMedEpicondyle			pRightUlnarStyloid			pRightRadialStyloid			pRightOlecranon			pLeftUlnarStyloid			pLeftRadialStyloid			pLeftOlecranon			pRightTopOfHand			pRightPinky			pRightBallHand			pLeftTopOfHand			pLeftPinky			pLeftBallHand			pRightGreaterTrochanter			pRightKneeLatEpicondyle			pRightKneeMedEpicondyle			pRightPatella			pLeftGreaterTrochanter			pLeftKneeLatEpicondyle			pLeftKneeMedEpicondyle			pLeftPatella			pRightTibialTub			pRightLatMalleolus			pRightMedMalleolus			pLeftTibialTub			pLeftLatMalleolus			pLeftMedMalleolus			pRightHeelFoot			pRightFirstMetatarsal			pRightFifthMetatarsal			pRightPivotFoot			pRightHeelCenter			pRightToe			pLeftHeelFoot			pLeftFirstMetatarsal			pLeftFifthMetatarsal			pLeftPivotFoot			pLeftHeelCenter			pLeftToe			
		X1	Y1	Z1	X2	Y2	Z2	X3	Y3	Z3	X4	Y4	Z4	X5	Y5	Z5	X6	Y6	Z6	X7	Y7	Z7	X8	Y8	Z8	X9	Y9	Z9	X10	Y10	Z10	X11	Y11	Z11	X12	Y12	Z12	X13	Y13	Z13	X14	Y14	Z14	X15	Y15	Z15	X16	Y16	Z16	X17	Y17	Z17	X18	Y18	Z18	X19	Y19	Z19	X20	Y20	Z20	X21	Y21	Z21	X22	Y22	Z22	X23	Y23	Z23	X24	Y24	Z24	X25	Y25	Z25	X26	Y26	Z26	X27	Y27	Z27	X28	Y28	Z28	X29	Y29	Z29	X30	Y30	Z30	X31	Y31	Z31	X32	Y32	Z32	X33	Y33	Z33	X34	Y34	Z34	X35	Y35	Z35	X36	Y36	Z36	X37	Y37	Z37	X38	Y38	Z38	X39	Y39	Z39	X40	Y40	Z40	X41	Y41	Z41	X42	Y42	Z42	X43	Y43	Z43	X44	Y44	Z44	X45	Y45	Z45	X46	Y46	Z46	X47	Y47	Z47	X48	Y48	Z48	X49	Y49	Z49	X50	Y50	Z50	X51	Y51	Z51	X52	Y52	Z52	X53	Y53	Z53	X54	Y54	Z54	X55	Y55	Z55	X56	Y56	Z56	X57	Y57	Z57	X58	Y58	Z58	X59	Y59	Z59	X60	Y60	Z60	X61	Y61	Z61	X62	Y62	Z62	X63	Y63	Z63	X64	Y64	Z64	
616	10.25	0.0	1249.99432	7.654007714701862E-14	26.41379999999998	1334.3153	140.85369000000009	92.08975000000001	1346.38677	-99.3804299999999	-7.350450000000014	1397.30206	111.81046000000009	46.612590000000004	1407.28194	-85.75521999999991	-62.86724000000001	1195.91176	33.28617000000006	-35.91559999999999	1200.87182	-65.49666999999992	-59.34141	1270.19311	-15.178969999999929	-23.96365	1363.65733	-3.88437999999992	17.509599999999995	1461.00594	15.95585000000009	58.564539999999994	1548.25515	36.2741600000001	261.38907	1604.01098	147.18822000000011	161.88911	1684.68661	91.19335000000011	108.88222999999999	1627.79535	62.09036000000011	191.82874	1522.7975	109.06151000000013	193.26297	1713.31153	101.59154000000012	329.09685	1902.09252	123.34409000000015	244.23802999999998	1842.63159	173.60202000000015	346.12837	1789.08687	109.36031000000015	268.08216	1817.2337	97.34860000000015	145.45518999999996	1668.43197	272.4446200000001	264.67585	1664.78662	-58.146219999999865	219.67677999999995	1450.72726	355.1520900000001	205.21491999999998	1423.3573	310.9896500000001	381.32685	1445.34889	-45.47715999999986	341.22807	1419.47292	-20.378069999999873	307.22477999999995	1285.31232	445.5685600000001	338.06080999999995	1284.11713	414.2544600000001	195.83263999999994	1441.7633	348.6980400000001	521.9415	1295.41172	-46.07474999999986	525.34781	1298.22043	-2.3306299999998563	358.55839	1434.89093	-55.87534999999987	472.52019999999993	1272.46398	506.7027700000001	391.72504999999995	1270.43215	506.0454100000001	343.02085999999997	1269.59551	458.7157100000001	675.58377	1255.97029	37.17055000000016	623.53305	1268.46008	-23.366059999999848	556.48263	1277.60332	-29.401789999999853	-40.39758000000001	1224.0586	141.9293600000001	110.67501999999998	922.57075	218.42182000000005	145.87350999999998	919.70228	161.2317600000001	156.69001999999998	941.69386	203.66117000000008	60.77565000000001	1252.26519	-135.65458999999993	389.81273	1191.2505	-48.644419999999876	377.50223	1189.21867	17.39008000000012	386.94427	1227.58442	-11.593389999999877	163.62214999999998	881.15725	212.8641700000001	12.01170999999998	534.31177	180.41463000000002	44.16243999999998	530.18835	129.73838000000003	422.74035	1154.55803	-15.955849999999877	299.15722	806.51735	-105.35640999999991	294.37644	798.21074	-45.955229999999915	-42.130610000000004	427.81992	81.27324000000003	96.51196999999999	344.09654	173.72154000000003	31.075059999999972	346.24789	232.82392000000002	79.36091999999996	333.63859	219.13894000000002	-17.449840000000012	406.12714	109.36031000000003	123.76240999999997	303.28064	269.39687	215.73263	681.14143	-68.96272999999992	378.15959	641.9988	13.924020000000086	394.53375	626.10272	-71.29335999999992	409.59321	627.77599	-21.81229999999991	255.65213	667.81501	-58.803579999999926	479.63161	612.11894	-5.497899999999904	
617	10.267	0.0	1249.99432	7.654007714701862E-14	25.87595999999998	1334.97266	140.55489000000009	92.80686000000001	1345.66965	-99.3804299999999	-7.649250000000014	1397.89966	110.97382000000009	47.38947000000001	1406.7441	-86.29304999999991	-63.16604000000001	1196.21056	33.226410000000065	-35.676559999999995	1200.63278	-65.43690999999993	-59.22189	1270.25287	-15.597289999999928	-23.72461	1363.71709	-4.481979999999919	18.047439999999998	1461.00594	15.29849000000009	59.40116999999999	1548.13563	35.7363200000001	262.10619	1602.75602	147.24798000000013	163.14407	1684.08902	91.25311000000012	109.95790999999998	1627.43679	61.851320000000115	192.30682	1521.96086	108.76271000000013	194.57769	1712.47489	101.83058000000013	331.30796	1900.59853	124.18072000000015	246.03081999999998	1841.49615	174.19962000000015	347.74188	1787.53311	110.01767000000015	269.87495	1816.09827	97.94620000000015	145.87350999999998	1667.77461	272.32510000000013	265.99057	1664.18903	-58.02669999999986	220.69268999999994	1450.42846	354.85329000000013	206.23083999999997	1423.05851	310.6908500000001	382.76109	1445.10985	-45.297879999999864	342.54279	1419.11436	-20.49758999999987	308.18093999999996	1285.25256	445.6283200000001	339.19623999999993	1284.11713	414.4337400000001	196.78879999999995	1441.40474	348.3394800000001	523.55501	1295.35196	-45.89546999999986	526.90156	1298.16067	-2.151349999999856	359.93287	1434.59213	-55.81558999999987	473.3568399999999	1272.34446	507.18085000000013	392.56167999999997	1270.31263	506.3442100000001	343.9770199999999	1269.53575	458.8949800000001	677.25705	1256.26909	37.409590000000165	625.20632	1268.63936	-23.186779999999843	558.1559	1277.66308	-29.162749999999853	-40.09878000000001	1225.25379	142.2879200000001	117.42786999999997	928.24792	223.38188000000008	152.38731999999996	925.14042	166.13206000000008	162.96478999999997	948.08815	208.0833900000001	60.83541000000002	1250.41264	-135.77410999999992	388.85658	1182.46582	-49.95913999999988	376.84487	1181.21087	16.135130000000117	387.00403	1219.1583	-13.147139999999878	168.34316999999996	884.98188	216.27047000000007	1.5537499999999786	546.20395	174.49842000000004	33.286169999999984	542.14029	123.58313000000003	423.3977	1147.38686	-16.672969999999875	309.97373	793.48973	-95.67532999999992	306.14911	786.49784	-36.035119999999914	-55.03871000000001	442.4013	74.16183000000002	81.93058999999998	354.61425	165.29542000000004	16.61320999999997	357.42296	224.57707000000002	64.66002999999998	344.03678	210.65306000000004	-30.836020000000016	419.81212	101.95010000000003	108.46390999999997	312.06532	260.43291	231.44944	666.14174	-56.174149999999926	395.78871	634.34956	26.115000000000087	412.04335	617.37779	-58.92309999999991	427.40161	620.54506	-9.621319999999912	271.84702	654.42883	-46.13450999999992	498.03761	607.63696	6.513810000000099	
618	10.283	0.0	1249.99432	7.654007714701862E-14	25.099089999999983	1335.86906	140.19633000000007	93.64350000000002	1344.89278	-99.3804299999999	-8.067560000000014	1398.67654	109.95791000000008	48.28586000000001	1406.08674	-87.01016999999992	-63.52460000000001	1196.56912	33.16665000000006	-35.31799999999999	1200.27422	-65.31738999999993	-59.10238	1270.25287	-16.13512999999993	-23.42582	1363.83661	-5.2588599999999195	18.52552	1461.00594	14.46186000000009	59.99876999999999	1548.07587	35.0789600000001	262.58426	1601.79987	147.24798000000013	164.04047	1683.55118	91.13359000000011	110.73477999999999	1627.19775	61.43300000000011	192.66538	1521.36327	108.28463000000013	195.53384	1711.87729	101.89034000000012	333.10075	1899.28381	124.89784000000016	247.46504999999996	1840.54	174.67770000000013	348.99684	1786.15864	110.55550000000015	271.30918	1815.14211	98.42428000000014	145.93326999999996	1667.41605	271.9665400000001	267.06624	1663.83047	-58.08645999999987	221.40980999999994	1450.3687	354.1959300000001	207.06746999999996	1422.93899	310.0932500000001	383.89652	1444.99033	-45.23811999999987	343.5587	1418.87532	-20.736629999999874	308.89805999999993	1285.37208	445.3295300000001	340.0328799999999	1284.29641	414.2544600000001	197.50591999999997	1441.28522	347.6821200000001	524.86973	1295.47148	-46.014989999999855	528.15651	1298.16067	-2.211109999999856	361.0683	1434.47261	-55.87534999999987	473.89467999999994	1272.2847	507.36013000000014	393.0995199999999	1270.31263	506.2844500000001	344.63437999999996	1269.65527	458.7157100000001	678.63152	1256.62765	37.29007000000016	626.58079	1268.93816	-23.246539999999843	559.47061	1277.7826	-29.282269999999855	-39.859740000000016	1226.68803	142.7062400000001	125.49543999999997	935.71789	229.4773700000001	160.39511999999996	932.19206	172.16779000000008	170.49451999999997	956.335	213.58128000000008	60.895170000000014	1247.96249	-135.8338699999999	387.00403	1169.79676	-51.51288999999988	375.41064	1169.55772	14.700890000000117	386.64547	1206.84779	-15.059449999999877	174.25937999999996	890.42001	220.81221000000008	-7.828520000000021	560.96461	169.17980000000003	23.605089999999986	557.08022	118.08523000000002	423.27818	1136.39107	-17.927919999999876	319.29625	777.41436	-86.53208999999991	316.60706	771.79694	-26.712599999999913	-66.75162000000002	459.79138	67.46874000000001	68.30536999999998	368.00043	157.52665000000002	3.0477499999999735	371.4665	216.86807000000002	50.795769999999976	357.24368	202.76477000000003	-43.02701000000001	436.36557	95.01797000000003	93.94229999999997	323.71847	252.12631000000002	245.49298	648.63213	-44.40147999999993	411.32624	623.53305	37.170550000000084	427.52113	605.72465	-47.68826999999992	443.17818	610.20663	1.4939900000000914	286.30888	638.41322	-34.42160999999992	514.2325	599.86819	17.2705600000001	
619	10.3	0.0	1249.99432	7.654007714701862E-14	24.142929999999982	1336.70569	139.8377700000001	94.53990000000002	1344.1159	-99.2609199999999	-8.665160000000014	1399.33389	109.00175000000009	49.182260000000014	1405.42939	-87.60776999999992	-63.82339000000001	1196.86792	32.98737000000006	-34.89967999999999	1199.91567	-65.25762999999993	-58.9231	1270.25287	-16.73272999999993	-23.24654	1363.83661	-6.035729999999919	18.76456	1461.0657	13.68498000000009	60.35732999999999	1548.07587	34.4216100000001	262.70378	1601.14251	147.36750000000012	164.45878	1683.25238	91.13359000000011	111.15309999999998	1627.01847	61.13421000000012	192.72514	1520.94495	107.98584000000012	196.01192	1711.45897	102.00986000000013	334.11666	1898.38742	125.61496000000015	248.18216999999999	1839.9424	175.15578000000014	349.59443	1785.20248	111.15310000000015	272.0263	1814.54451	98.90236000000014	145.51494999999997	1667.23677	271.72750000000013	267.7236	1663.65119	-57.966939999999866	221.82812999999993	1450.30894	353.4190600000001	207.60530999999997	1422.93899	309.19686000000013	384.6734	1445.05009	-45.297879999999864	344.33558	1418.81557	-21.035429999999874	309.37612999999993	1285.4916	444.79169000000013	340.57070999999996	1284.53545	413.8361500000001	197.92422999999997	1441.16571	346.7857300000001	525.76613	1295.65076	-46.313789999999855	528.99315	1298.28018	-2.5696699999998556	361.84518	1434.47261	-56.054629999999875	474.25323999999995	1272.2847	507.1210900000001	393.5178399999999	1270.43215	505.9258900000001	345.11244999999997	1269.83455	458.23763000000014	679.52792	1256.80693	36.931510000000166	627.47719	1269.1772	-23.664849999999845	560.36701	1277.96188	-29.640829999999855	-39.740220000000015	1228.30154	143.06480000000008	134.45939999999996	944.50257	236.4095000000001	169.23955999999998	940.67795	179.04016000000007	178.74135999999996	966.07583	219.8560600000001	60.895170000000014	1245.39282	-135.95338999999993	384.0758	1154.37875	-53.18615999999988	372.90073	1155.09587	13.087380000000117	385.51003	1191.66882	-16.97175999999988	180.83294999999998	897.65094	226.25035000000008	-15.298490000000019	577.99613	165.41494000000003	16.075369999999985	574.11175	114.26061000000003	421.72443	1122.58657	-19.48166999999988	326.3479	759.66572	-79.00236999999991	324.73439	755.2435	-19.063349999999915	-76.61198000000002	479.27305	62.44892000000002	56.29366999999998	383.23916	151.25188000000003	-8.784680000000026	387.54186	210.65306000000004	38.60478999999998	372.30313	196.31072000000003	-53.42520000000001	454.95084	89.63960000000003	80.97443999999997	337.28393	245.25394000000003	256.60829	629.62854	-34.54112999999994	423.33794	610.32615	46.67235000000009	439.71211	591.68111	-38.00718999999991	455.42892	597.29852	10.995790000000092	297.72299	620.66458	-24.621009999999924	526.8418	589.1712	26.5930800000001	
